HIERARCHY
ROOT SpineBase
{
  OFFSET 0.000000 0.000000 0.000000
  CHANNELS 6 Xposition Yposition Zposition Zrotation Xrotation Yrotation
  JOINT SpineMid
  {
    OFFSET 0.000000 31.382972 0.000000
    CHANNELS 3 Zrotation Xrotation Yrotation
    JOINT SpineShoulder
    {
      OFFSET -0.099360 23.361664 -0.825249
      CHANNELS 3 Zrotation Xrotation Yrotation
      JOINT Neck
      {
        OFFSET -0.049930 7.754975 -0.623871
        CHANNELS 3 Zrotation Xrotation Yrotation
        JOINT Head
        {
          OFFSET -6.494460 12.111705 2.809168
          CHANNELS 3 Zrotation Xrotation Yrotation
          End Site
          {
            OFFSET 0 0 0
          }
        }
      }
      JOINT ShoulderLeft
      {
        OFFSET -10.987029 -2.245372 12.290579
        CHANNELS 3 Zrotation Xrotation Yrotation
        JOINT ElbowLeft
        {
          OFFSET -1.656257 -27.987150 3.982444
          CHANNELS 3 Zrotation Xrotation Yrotation
          JOINT WristLeft
          {
            OFFSET -1.221995 -28.067632 3.823087
            CHANNELS 3 Zrotation Xrotation Yrotation
            JOINT HandLeft
            {
              OFFSET -0.902574 -8.077983 0.274442
              CHANNELS 3 Zrotation Xrotation Yrotation
              JOINT HandTipLeft
              {
                OFFSET -0.572104 0.120382 -1.044612
                CHANNELS 3 Zrotation Xrotation Yrotation
                End Site
                {
                  OFFSET 0 0 0
                }
              }
              JOINT ThumbLeft
              {
                OFFSET -0.122020 0.553005 -2.299696
                CHANNELS 3 Zrotation Xrotation Yrotation
                End Site
                {
                  OFFSET 0 0 0
                }
              }
            }
          }
        }
      }
      JOINT ShoulderRight
      {
        OFFSET 10.390232 -2.218795 -11.706606
        CHANNELS 3 Zrotation Xrotation Yrotation
        JOINT ElbowRight
        {
          OFFSET 7.606416 -26.231497 -7.160343
          CHANNELS 3 Zrotation Xrotation Yrotation
          JOINT WristRight
          {
            OFFSET -0.319536 -20.485137 -5.983141
            CHANNELS 3 Zrotation Xrotation Yrotation
            JOINT HandRight
            {
              OFFSET -1.575058 -6.727081 0.202967
              CHANNELS 3 Zrotation Xrotation Yrotation
              JOINT HandTipRight
              {
                OFFSET -2.021744 -7.033854 -0.892075
                CHANNELS 3 Zrotation Xrotation Yrotation
                End Site
                {
                  OFFSET 0 0 0
                }
              }
              JOINT ThumbRight
              {
                OFFSET -1.787624 -1.758921 -0.301155
                CHANNELS 3 Zrotation Xrotation Yrotation
                End Site
                {
                  OFFSET 0 0 0
                }
              }
            }
          }
        }
      }
    }
  }
  JOINT HipLeft
  {
    OFFSET -4.475363 0.531789 0.649215
    CHANNELS 3 Zrotation Xrotation Yrotation
    JOINT KneeLeft
    {
      OFFSET 1.779735 -38.456902 2.660054
      CHANNELS 3 Zrotation Xrotation Yrotation
      JOINT AnkleLeft
      {
        OFFSET 5.526675 -35.981431 3.737310
        CHANNELS 3 Zrotation Xrotation Yrotation
        JOINT FootLeft
        {
          OFFSET -5.186192 -5.023306 -8.210793
          CHANNELS 3 Zrotation Xrotation Yrotation
          End Site
          {
            OFFSET 0 0 0
          }
        }
      }
    }
  }
  JOINT HipRight
  {
    OFFSET 4.173811 1.821614 -7.780784
    CHANNELS 3 Zrotation Xrotation Yrotation
    JOINT KneeRight
    {
      OFFSET 8.485667 -33.157944 -3.101501
      CHANNELS 3 Zrotation Xrotation Yrotation
      JOINT AnkleRight
      {
        OFFSET 7.270302 -38.264561 7.040903
        CHANNELS 3 Zrotation Xrotation Yrotation
        JOINT FootRight
        {
          OFFSET -6.890614 -3.532037 -10.209979
          CHANNELS 3 Zrotation Xrotation Yrotation
          End Site
          {
            OFFSET 0 0 0
          }
        }
      }
    }
  }
}
MOTION
Frames: 16
Frame Time: 0.033333
13.282286 88.474867 337.923790 -0.000000 0.000000 44.264772 -0.000000 0.000000 -44.264772 -0.000000 0.000000 0.000000 -0.000000 0.000000 0.000000 0.000000 0.000000 0.000000 -0.000000 0.000000 0.000000 -0.000000 0.000000 0.000000 -0.000000 0.000000 0.000000 -0.000000 0.000000 0.000000 0.000000 0.000000 0.000000 0.000000 0.000000 0.000000 -0.000000 0.000000 0.000000 -0.000000 0.000000 0.000000 -0.000000 0.000000 0.000000 -0.000000 0.000000 0.000000 0.000000 0.000000 0.000000 0.000000 0.000000 0.000000 -0.000000 0.000000 -44.264772 -0.000000 0.000000 0.000000 -0.000000 0.000000 0.000000 0.000000 0.000000 0.000000 -0.000000 0.000000 -44.264772 -0.000000 0.000000 0.000000 -0.000000 0.000000 0.000000 0.000000 0.000000 0.000000
13.282609 88.431073 337.812457 0.125803 0.030400 44.133486 -0.111460 0.065783 -44.133456 -0.000000 0.000000 0.000000 -0.000000 0.000000 0.000000 0.000000 0.000000 0.000000 -0.000000 0.000000 0.000000 -0.000000 0.000000 0.000000 1.134025 -4.991467 0.645772 5.967482 -10.329758 -4.457285 0.000000 0.000000 0.000000 0.000000 0.000000 0.000000 -0.000000 0.000000 0.000000 -0.000000 0.000000 0.000000 -2.351830 1.430168 -0.374822 4.078107 -0.767685 0.064491 0.000000 0.000000 0.000000 0.000000 0.000000 0.000000 -0.111460 0.065783 -44.133456 -0.000000 0.000000 0.000000 4.483403 -6.692238 -0.176696 0.000000 0.000000 0.000000 -0.111460 0.065783 -44.133456 -0.000000 0.000000 0.000000 0.893807 -0.932267 -0.788220 0.000000 0.000000 0.000000
13.276589 88.393843 337.725676 0.230627 0.043527 44.035953 -0.196055 0.129020 -44.035820 -0.000000 0.000000 0.000000 -0.000000 0.000000 0.000000 0.000000 0.000000 0.000000 -0.000000 0.000000 0.000000 -0.000000 0.000000 0.000000 2.549092 -10.777381 1.533663 10.123705 -19.010544 -7.903177 0.000000 0.000000 0.000000 0.000000 0.000000 0.000000 -0.000000 0.000000 0.000000 -0.000000 0.000000 0.000000 -4.309130 2.635916 -0.642939 7.418846 -1.458100 0.242954 0.000000 0.000000 0.000000 0.000000 0.000000 0.000000 -0.196055 0.129020 -44.035820 -0.000000 0.000000 0.000000 8.780073 -13.007510 0.150669 0.000000 0.000000 0.000000 -0.196055 0.129020 -44.035820 -0.000000 0.000000 0.000000 1.524835 -1.613094 -1.327877 0.000000 0.000000 0.000000
13.264225 88.363175 337.663445 0.314453 0.039373 43.972392 -0.253642 0.189992 -43.972079 -0.000000 0.000000 0.000000 -0.000000 0.000000 0.000000 0.000000 0.000000 0.000000 -0.000000 0.000000 0.000000 -0.000000 0.000000 0.000000 4.305727 -17.253796 2.739284 12.298122 -24.533319 -10.681249 0.000000 0.000000 0.000000 0.000000 0.000000 0.000000 -0.000000 0.000000 0.000000 -0.000000 0.000000 0.000000 -5.939181 3.649467 -0.835379 9.989069 -2.159644 0.520980 0.000000 0.000000 0.000000 0.000000 0.000000 0.000000 -0.253642 0.189992 -43.972079 -0.000000 0.000000 0.000000 12.624853 -18.426521 0.847599 0.000000 0.000000 0.000000 -0.253642 0.189992 -43.972079 -0.000000 0.000000 0.000000 1.876920 -2.008858 -1.606328 0.000000 0.000000 0.000000
13.245517 88.339071 337.625766 0.377267 0.017933 43.943025 -0.284090 0.248888 -43.942467 -0.000000 0.000000 0.000000 -0.000000 0.000000 0.000000 0.000000 0.000000 0.000000 -0.000000 0.000000 0.000000 -0.000000 0.000000 0.000000 6.439604 -24.105196 4.322958 12.950728 -27.040530 -13.047922 0.000000 0.000000 0.000000 0.000000 0.000000 0.000000 -0.000000 0.000000 0.000000 -0.000000 0.000000 0.000000 -7.292988 4.497228 -0.973695 11.767196 -2.941660 0.886425 0.000000 0.000000 0.000000 0.000000 0.000000 0.000000 -0.284090 0.248888 -43.942467 -0.000000 0.000000 0.000000 15.760440 -22.608416 1.687211 0.000000 0.000000 0.000000 -0.284090 0.248888 -43.942467 -0.000000 0.000000 0.000000 1.941138 -2.100278 -1.617338 0.000000 0.000000 0.000000
13.220465 88.321530 337.612638 0.419058 -0.020795 43.948086 -0.287280 0.305799 -43.947243 -0.000000 0.000000 0.000000 -0.000000 0.000000 0.000000 0.000000 0.000000 0.000000 -0.000000 0.000000 0.000000 -0.000000 0.000000 0.000000 8.905415 -30.772114 6.271748 12.829515 -27.550384 -14.925636 0.000000 0.000000 0.000000 0.000000 0.000000 0.000000 -0.000000 0.000000 0.000000 -0.000000 0.000000 0.000000 -8.408625 5.199990 -1.072956 12.755475 -3.850288 1.322531 0.000000 0.000000 0.000000 0.000000 0.000000 0.000000 -0.287280 0.305799 -43.947243 -0.000000 0.000000 0.000000 17.970132 -25.404902 2.423270 0.000000 0.000000 0.000000 -0.287280 0.305799 -43.947243 -0.000000 0.000000 0.000000 1.715654 -1.883698 -1.360698 0.000000 0.000000 0.000000
13.201126 88.322965 337.631527 0.440266 -0.058960 44.026807 -0.275585 0.348374 -44.025742 -0.000000 0.000000 0.000000 0.984999 0.324574 -0.056913 0.000000 0.000000 0.000000 -0.000000 0.000000 0.000000 -0.000000 0.000000 0.000000 13.121985 -38.240528 9.444280 11.116288 -26.078544 -17.245363 0.000000 0.000000 0.000000 0.000000 0.000000 0.000000 -0.000000 0.000000 0.000000 -0.000000 0.000000 0.000000 -9.373418 5.660573 -1.125471 13.600981 -5.580839 2.009900 0.000000 0.000000 0.000000 0.000000 0.000000 0.000000 -0.275585 0.348374 -44.025742 -0.000000 0.000000 0.000000 15.273126 -22.197252 2.049149 0.000000 0.000000 0.000000 -0.275585 0.348374 -44.025742 -0.000000 0.000000 0.000000 0.548445 -0.662395 -0.297700 0.000000 0.000000 0.000000
13.221989 88.338528 337.561498 0.498249 0.024463 44.163441 -0.374469 0.329583 -44.162470 -0.000000 0.000000 0.000000 1.370433 0.365377 -0.125423 0.000000 0.000000 0.000000 -0.000000 0.000000 0.000000 -0.000000 0.000000 0.000000 17.755742 -45.463891 13.452855 11.252829 -26.210945 -17.953737 0.000000 0.000000 0.000000 0.000000 0.000000 0.000000 -0.000000 0.000000 0.000000 -0.000000 0.000000 0.000000 -9.923731 6.114455 -1.179676 13.176212 -4.640365 1.805236 0.000000 0.000000 0.000000 0.000000 0.000000 0.000000 -0.374469 0.329583 -44.162470 -0.000000 0.000000 0.000000 16.073146 -23.128829 2.064680 0.000000 0.000000 0.000000 -0.374469 0.329583 -44.162470 -0.000000 0.000000 0.000000 -1.023500 0.906595 1.151636 0.000000 0.000000 0.000000
13.198859 88.373990 337.570524 0.476562 -0.060030 44.342645 -0.298872 0.376021 -44.341415 -0.000000 0.000000 0.000000 1.893479 0.349413 -0.255182 0.000000 0.000000 0.000000 -0.000000 0.000000 0.000000 -0.000000 0.000000 0.000000 18.678740 -43.693699 13.332419 13.135446 -31.033456 -14.732066 0.000000 0.000000 0.000000 0.000000 0.000000 0.000000 -0.000000 0.000000 0.000000 -0.000000 0.000000 0.000000 -10.158228 6.597102 -1.242877 11.252312 -6.255310 2.389998 0.000000 0.000000 0.000000 0.000000 0.000000 0.000000 -0.298872 0.376021 -44.341415 -0.000000 0.000000 0.000000 15.929471 -22.884854 1.876869 0.000000 0.000000 0.000000 -0.298872 0.376021 -44.341415 -0.000000 0.000000 0.000000 -2.913262 2.709830 2.865708 0.000000 0.000000 0.000000
13.090025 88.338019 337.779945 0.385313 -0.359950 44.315560 -0.024234 0.526726 -44.314238 -0.000000 0.000000 0.000000 2.208784 0.474243 -0.264225 0.000000 0.000000 0.000000 -0.000000 0.000000 0.000000 -0.000000 0.000000 0.000000 11.762280 -32.569646 7.590569 18.574010 -39.772331 -9.793609 0.000000 0.000000 0.000000 0.000000 0.000000 0.000000 -0.000000 0.000000 0.000000 -0.000000 0.000000 0.000000 -11.203357 6.187113 -1.156998 9.648466 -7.442259 2.811415 0.000000 0.000000 0.000000 0.000000 0.000000 0.000000 -0.024234 0.526726 -44.314238 -0.000000 0.000000 0.000000 15.596680 -22.321132 1.464310 0.000000 0.000000 0.000000 -0.024234 0.526726 -44.314238 -0.000000 0.000000 0.000000 -1.429397 1.186914 1.736908 0.000000 0.000000 0.000000
12.865645 88.257724 338.197915 0.192058 -0.881077 44.290356 0.477795 0.764791 -44.292068 -0.000000 0.000000 0.000000 2.447085 0.590905 -0.260135 0.000000 0.000000 0.000000 -0.000000 0.000000 0.000000 -0.000000 0.000000 0.000000 9.446502 -57.988985 12.494082 19.371889 -17.902537 -22.394049 0.000000 0.000000 0.000000 0.000000 0.000000 0.000000 -0.000000 0.000000 0.000000 -0.000000 0.000000 0.000000 -12.669373 6.497728 -1.156578 10.296266 -7.543059 2.976627 0.000000 0.000000 0.000000 0.000000 0.000000 0.000000 0.477795 0.764791 -44.292068 0.556032 0.646826 0.153943 17.837790 -26.665593 2.930157 0.000000 0.000000 0.000000 0.477795 0.764791 -44.292068 0.439477 0.802487 0.230393 -1.878011 0.285108 1.711389 0.000000 0.000000 0.000000
12.714134 88.162711 338.594688 0.084708 -1.363152 44.052123 0.458970 0.288743 -44.050203 -0.213756 0.836515 -0.002433 2.515762 0.579118 -0.282125 0.000000 0.000000 0.000000 -0.000000 0.000000 0.000000 -0.000000 0.000000 0.000000 0.632363 -65.137247 8.410990 23.762466 -10.700854 -27.429516 0.000000 0.000000 0.000000 0.000000 0.000000 0.000000 -0.000000 0.000000 0.000000 -0.405854 -0.843592 0.128980 -14.723727 8.367457 -1.097531 11.202702 -9.626666 3.766282 0.000000 0.000000 0.000000 0.000000 0.000000 0.000000 1.683876 1.502033 -44.018444 0.412135 -0.179762 0.123319 14.186966 -22.569350 2.368849 0.000000 0.000000 0.000000 1.841427 0.575201 -44.082206 -0.569237 0.959381 0.330639 -1.869064 -0.290931 1.747347 0.000000 0.000000 0.000000
12.337840 88.017988 339.230634 -0.307212 -2.172459 43.604550 0.754266 0.419067 -43.623300 0.319745 0.354626 0.018194 2.433671 1.462983 -0.440382 0.000000 0.000000 0.000000 -0.269559 0.994257 -0.012954 0.969612 2.111186 0.022346 -3.397158 -54.350781 4.768656 28.202712 -16.121857 -16.063159 0.000000 0.000000 0.000000 0.000000 0.000000 0.000000 -0.269559 0.994257 -0.012954 -1.936547 -0.929383 0.565641 -14.992042 9.617156 -1.514803 11.145641 -10.890607 4.230201 0.000000 0.000000 0.000000 0.000000 0.000000 0.000000 2.639323 2.843307 -43.610327 1.133334 -1.341444 0.108319 11.072612 -18.662491 2.283988 0.000000 0.000000 0.000000 3.371606 0.662676 -43.654585 -1.180886 1.270091 0.436406 -1.916816 -0.983828 1.721845 0.000000 0.000000 0.000000
11.813142 87.734083 339.998996 -0.918847 -3.082083 43.318351 0.937445 0.545285 -43.377708 0.521984 0.573158 0.004831 3.438550 1.790204 -0.674179 0.000000 0.000000 0.000000 0.087792 1.469344 0.015414 1.159428 1.654542 0.069316 -5.041932 -43.122099 2.984629 28.432025 -2.812091 -3.000054 0.000000 0.000000 0.000000 0.000000 0.000000 0.000000 0.087792 1.469344 0.015414 -3.385021 -0.622721 0.981353 -17.196725 10.121723 -1.827555 13.922870 -11.032362 4.653018 0.000000 0.000000 0.000000 0.000000 0.000000 0.000000 4.089388 4.361022 -43.381389 1.714819 -3.290508 0.016272 9.118608 -15.335688 2.043155 0.000000 0.000000 0.000000 5.413139 0.421392 -43.442659 -2.144815 1.698631 0.598590 -2.004217 -1.747269 1.572177 0.000000 0.000000 0.000000
10.754025 87.554106 341.073729 -1.811285 -4.158626 43.186152 1.086496 0.565122 -43.316037 0.587876 0.725093 -0.028090 4.562104 2.112768 -1.022153 0.000000 0.000000 0.000000 0.812617 2.279821 0.063985 1.123825 -0.194014 0.163463 -7.014007 -33.156451 1.704882 29.827087 11.158002 21.481166 0.000000 0.000000 0.000000 0.000000 0.000000 0.000000 0.174926 2.873163 0.438700 -5.388632 -0.748840 1.348486 -17.253721 11.295901 -2.592088 15.434556 -11.872166 5.180002 0.000000 0.000000 0.000000 0.000000 0.000000 0.000000 5.977592 5.914870 -43.347373 1.841831 -5.579865 -0.179063 8.832417 -13.742003 2.626344 0.000000 0.000000 0.000000 8.154810 0.130565 -43.369759 -3.160115 1.876037 0.740726 -2.304859 -2.497857 1.312323 0.000000 0.000000 0.000000
9.466688 87.432503 342.183852 -2.679600 -5.170333 43.375579 1.031174 0.551347 -43.590903 0.623828 0.783837 -0.067964 5.556694 2.380037 -1.447070 0.000000 0.000000 0.000000 1.964029 4.430250 0.062217 0.260777 -7.025626 0.391417 -6.100876 -22.579309 1.891505 44.470311 -1.654773 39.078595 0.000000 0.000000 0.000000 0.000000 0.000000 0.000000 0.746658 4.512758 0.778637 -8.455719 -0.947359 1.955771 -18.289219 12.123501 -3.356357 16.437062 -11.468119 5.442440 0.000000 0.000000 0.000000 0.000000 0.000000 0.000000 7.439620 7.375536 -43.664612 1.860002 -7.948732 -0.491174 9.935452 -11.932620 1.353464 0.000000 0.000000 0.000000 10.844831 -0.186305 -43.610870 -4.048008 1.869739 0.848197 -2.688149 -3.076827 0.958549 0.000000 0.000000 0.000000
